<svg width="342.58" height="216" viewBox="0 0 342.58 216" fill="none" xmlns="http://www.w3.org/2000/svg">
  <defs>
    <linearGradient id="bg22" x1="0%" y1="0%" x2="100%" y2="100%">
      <stop offset="0%" stop-color="#fff0f5" />
      <stop offset="55%" stop-color="#ffd6e8" />
      <stop offset="100%" stop-color="#ffe9f0" />
    </linearGradient>
    <linearGradient id="chip22" x1="0%" y1="0%" x2="100%" y2="100%">
      <stop offset="0%" stop-color="#f3e3ad" />
      <stop offset="100%" stop-color="#c9ab5f" />
    </linearGradient>
    <clipPath id="clip22">
      <rect width="342.58" height="216" rx="20" />
    </clipPath>
    <radialGradient id="glowA22" cx="20%" cy="90%" r="65%">
    <stop offset="0%" stop-color="#ffffff" stop-opacity="0.4" />
    <stop offset="100%" stop-color="#ffffff" stop-opacity="0" />
  </radialGradient>
  </defs>

  <g clip-path="url(#clip22)">
    <rect width="342.58" height="216" fill="url(#bg22)" />
    <rect width="342.58" height="216" fill="url(#glowA22)" />
    <ellipse cx="112.1" cy="48.1" rx="18.1" ry="10.0" fill="#e07a9e" opacity="0.17" transform="rotate(0 112.1 48.1)" /><ellipse cx="95.5" cy="71.0" rx="18.1" ry="10.0" fill="#e07a9e" opacity="0.17" transform="rotate(72 95.5 71.0)" /><ellipse cx="68.6" cy="62.2" rx="18.1" ry="10.0" fill="#e07a9e" opacity="0.17" transform="rotate(144 68.6 62.2)" /><ellipse cx="68.6" cy="33.9" rx="18.1" ry="10.0" fill="#e07a9e" opacity="0.17" transform="rotate(216 68.6 33.9)" /><ellipse cx="95.5" cy="25.2" rx="18.1" ry="10.0" fill="#e07a9e" opacity="0.17" transform="rotate(288 95.5 25.2)" /><ellipse cx="301.4" cy="70.7" rx="14.3" ry="7.9" fill="#e07a9e" opacity="0.22" transform="rotate(0 301.4 70.7)" /><ellipse cx="288.2" cy="88.8" rx="14.3" ry="7.9" fill="#e07a9e" opacity="0.22" transform="rotate(72 288.2 88.8)" /><ellipse cx="266.9" cy="81.9" rx="14.3" ry="7.9" fill="#e07a9e" opacity="0.22" transform="rotate(144 266.9 81.9)" /><ellipse cx="266.9" cy="59.5" rx="14.3" ry="7.9" fill="#e07a9e" opacity="0.22" transform="rotate(216 266.9 59.5)" /><ellipse cx="288.2" cy="52.6" rx="14.3" ry="7.9" fill="#e07a9e" opacity="0.22" transform="rotate(288 288.2 52.6)" /><ellipse cx="349.5" cy="10.0" rx="13.7" ry="7.6" fill="#e07a9e" opacity="0.16" transform="rotate(0 349.5 10.0)" /><ellipse cx="336.9" cy="27.4" rx="13.7" ry="7.6" fill="#e07a9e" opacity="0.16" transform="rotate(72 336.9 27.4)" /><ellipse cx="316.6" cy="20.8" rx="13.7" ry="7.6" fill="#e07a9e" opacity="0.16" transform="rotate(144 316.6 20.8)" /><ellipse cx="316.6" cy="-0.7" rx="13.7" ry="7.6" fill="#e07a9e" opacity="0.16" transform="rotate(216 316.6 -0.7)" /><ellipse cx="336.9" cy="-7.3" rx="13.7" ry="7.6" fill="#e07a9e" opacity="0.16" transform="rotate(288 336.9 -7.3)" /><ellipse cx="159.0" cy="160.5" rx="16.9" ry="9.4" fill="#e07a9e" opacity="0.17" transform="rotate(0 159.0 160.5)" /><ellipse cx="143.4" cy="182.0" rx="16.9" ry="9.4" fill="#e07a9e" opacity="0.17" transform="rotate(72 143.4 182.0)" /><ellipse cx="118.2" cy="173.8" rx="16.9" ry="9.4" fill="#e07a9e" opacity="0.17" transform="rotate(144 118.2 173.8)" /><ellipse cx="118.2" cy="147.3" rx="16.9" ry="9.4" fill="#e07a9e" opacity="0.17" transform="rotate(216 118.2 147.3)" /><ellipse cx="143.4" cy="139.1" rx="16.9" ry="9.4" fill="#e07a9e" opacity="0.17" transform="rotate(288 143.4 139.1)" />
    <rect width="342.58" height="70" fill="#000000" opacity="0.04" />
    <rect y="156" width="342.58" height="60" fill="#000000" opacity="0.06" />
  </g>
  <rect x="0.5" y="0.5" width="341.58" height="215" rx="19.5" fill="none" stroke="#000000" stroke-opacity="0.1" stroke-width="1" />

  <g>
    <circle cx="32" cy="17" r="9" fill="#e07a9e" opacity="0.9" />
    <text x="48" y="21" font-size="12.5" letter-spacing="0.5" fill="#141414" font-weight="700">SAKURA</text>
  </g>

  <g>
    <rect x="24" y="38" width="48" height="36" rx="7" fill="url(#chip22)" />
    <rect x="24" y="38" width="48" height="36" rx="7" fill="none" stroke="#000" stroke-opacity="0.15" stroke-width="1" />
    <rect x="31" y="48" width="34" height="16" rx="2" fill="none" stroke="#00000055" stroke-width="1" />
    <line x1="48" y1="38" x2="48" y2="74" stroke="#00000033" stroke-width="1" />
    <line x1="24" y1="56" x2="72" y2="56" stroke="#00000033" stroke-width="1" />
  </g>

  <g transform="translate(96 56)" stroke="#141414" stroke-opacity="0.55" stroke-width="2" fill="none" stroke-linecap="round">
    <path d="M0,14 A14,14 0 0 1 0,-14" />
    <path d="M0,9 A9,9 0 0 1 0,-9" />
    <path d="M0,4 A4,4 0 0 1 0,-4" />
  </g>

  <g transform="translate(288 168)">
    <circle cx="-8" cy="0" r="17" fill="#e07a9e" opacity="0.75" />
    <circle cx="8" cy="0" r="17" fill="#ffffff" opacity="0.75" />
    <circle cx="-8" cy="0" r="17" fill="#e07a9e" opacity="0.35" style="mix-blend-mode:screen" />
  </g>

  <text x="318.58" y="30" text-anchor="end" font-size="12" letter-spacing="2.5" fill="#141414" fill-opacity="0.8" font-weight="700">DEBIT</text>

  <text x="25" y="133" font-size="21" letter-spacing="3" fill="#ffffff" fill-opacity="0.35">&#8226;&#8226;&#8226;&#8226; &#8226;&#8226;&#8226;&#8226; &#8226;&#8226;&#8226;&#8226; 8801</text>
  <text x="24" y="132" font-size="21" letter-spacing="3" fill="#141414">&#8226;&#8226;&#8226;&#8226; &#8226;&#8226;&#8226;&#8226; &#8226;&#8226;&#8226;&#8226; 8801</text>

  <text x="24" y="168" font-size="8.5" letter-spacing="1.5" fill="#141414" fill-opacity="0.6">CARD HOLDER</text>
  <text x="24" y="185" font-size="13" letter-spacing="1" fill="#141414" font-weight="500">A CARDHOLDER</text>

  <text x="318.58" y="168" text-anchor="end" font-size="8.5" letter-spacing="1.5" fill="#141414" fill-opacity="0.6">VALID THRU</text>
  <text x="318.58" y="185" text-anchor="end" font-size="13" letter-spacing="1" fill="#141414" font-weight="500">10/29</text>
</svg>
