<svg width="342.58" height="216" viewBox="0 0 342.58 216" fill="none" xmlns="http://www.w3.org/2000/svg">
  <defs>
    <linearGradient id="bg05" x1="0%" y1="0%" x2="100%" y2="100%">
      <stop offset="0%" stop-color="#1a0000" />
      <stop offset="55%" stop-color="#4a0e0e" />
      <stop offset="100%" stop-color="#0a0000" />
    </linearGradient>
    <linearGradient id="chip05" x1="0%" y1="0%" x2="100%" y2="100%">
      <stop offset="0%" stop-color="#f3e3ad" />
      <stop offset="100%" stop-color="#c9ab5f" />
    </linearGradient>
    <clipPath id="clip05">
      <rect width="342.58" height="216" rx="20" />
    </clipPath>
    <radialGradient id="glowA05" cx="75%" cy="85%" r="65%">
    <stop offset="0%" stop-color="#ff5522" stop-opacity="0.32" />
    <stop offset="100%" stop-color="#ff5522" stop-opacity="0" />
  </radialGradient>
  </defs>

  <g clip-path="url(#clip05)">
    <rect width="342.58" height="216" fill="url(#bg05)" />
    <rect width="342.58" height="216" fill="url(#glowA05)" />
    <path d="M95.1,-10.0 L106.6,40.0 L130.0,85.3 L136.1,118.5 L156.2,156.5 L172.0,207.4 L167.0,237.7" fill="none" stroke="#ff7a3d" stroke-opacity="0.37" stroke-width="1.9" stroke-linecap="round" /><path d="M252.9,-10.0 L277.3,28.4 L286.5,62.5 L298.6,116.2 L282.3,172.9 L288.4,225.4 L264.4,262.5" fill="none" stroke="#ff7a3d" stroke-opacity="0.35" stroke-width="1.7" stroke-linecap="round" /><path d="M61.8,-10.0 L73.3,24.7 L91.1,61.0 L83.5,100.2 L82.5,143.7 L104.3,174.5 L92.6,216.5 L85.8,267.2" fill="none" stroke="#ff7a3d" stroke-opacity="0.50" stroke-width="1.8" stroke-linecap="round" /><path d="M19.7,-10.0 L31.8,25.8 L49.1,59.5 L52.0,113.3 L45.7,151.5 L41.3,194.9 L46.9,254.2" fill="none" stroke="#ff7a3d" stroke-opacity="0.42" stroke-width="1.7" stroke-linecap="round" /><path d="M323.1,-10.0 L298.9,21.5 L274.3,77.9 L287.3,130.4 L307.0,174.7 L318.6,228.7" fill="none" stroke="#ff7a3d" stroke-opacity="0.27" stroke-width="1.9" stroke-linecap="round" /><path d="M187.2,-10.0 L164.9,22.5 L166.4,73.1 L168.7,123.7 L184.4,160.4 L188.4,206.5 L169.9,259.6" fill="none" stroke="#ff7a3d" stroke-opacity="0.41" stroke-width="1.2" stroke-linecap="round" /><circle cx="317.9" cy="58.8" r="1.8" fill="#ff7a3d" opacity="0.21" /><circle cx="12.6" cy="0.5" r="1.5" fill="#ff7a3d" opacity="0.48" /><circle cx="277.2" cy="74.9" r="1.7" fill="#ff7a3d" opacity="0.42" /><circle cx="238.1" cy="39.3" r="1.7" fill="#ff7a3d" opacity="0.39" /><circle cx="145.7" cy="59.1" r="1.2" fill="#ff7a3d" opacity="0.44" /><circle cx="24.7" cy="169.8" r="0.9" fill="#ff7a3d" opacity="0.47" /><circle cx="280.2" cy="105.3" r="1.4" fill="#ff7a3d" opacity="0.34" /><circle cx="191.5" cy="44.7" r="1.1" fill="#ff7a3d" opacity="0.42" /><circle cx="273.3" cy="149.3" r="1.4" fill="#ff7a3d" opacity="0.50" /><circle cx="36.6" cy="8.2" r="1.7" fill="#ff7a3d" opacity="0.41" /><circle cx="231.5" cy="53.7" r="0.6" fill="#ff7a3d" opacity="0.24" /><circle cx="128.2" cy="11.1" r="0.8" fill="#ff7a3d" opacity="0.36" />
    <rect width="342.58" height="70" fill="#000000" opacity="0.1" />
    <rect y="156" width="342.58" height="60" fill="#000000" opacity="0.18" />
  </g>
  <rect x="0.5" y="0.5" width="341.58" height="215" rx="19.5" fill="none" stroke="#ffffff" stroke-opacity="0.1" stroke-width="1" />

  <g>
    <circle cx="32" cy="17" r="9" fill="#ff7a3d" opacity="0.9" />
    <text x="48" y="21" font-size="12.5" letter-spacing="0.5" fill="#ffffff" font-weight="700">EMBER</text>
  </g>

  <g>
    <rect x="24" y="38" width="48" height="36" rx="7" fill="url(#chip05)" />
    <rect x="24" y="38" width="48" height="36" rx="7" fill="none" stroke="#000" stroke-opacity="0.15" stroke-width="1" />
    <rect x="31" y="48" width="34" height="16" rx="2" fill="none" stroke="#00000055" stroke-width="1" />
    <line x1="48" y1="38" x2="48" y2="74" stroke="#00000033" stroke-width="1" />
    <line x1="24" y1="56" x2="72" y2="56" stroke="#00000033" stroke-width="1" />
  </g>

  <g transform="translate(96 56)" stroke="#ffffff" stroke-opacity="0.55" stroke-width="2" fill="none" stroke-linecap="round">
    <path d="M0,14 A14,14 0 0 1 0,-14" />
    <path d="M0,9 A9,9 0 0 1 0,-9" />
    <path d="M0,4 A4,4 0 0 1 0,-4" />
  </g>

  <g transform="translate(288 168)">
    <circle cx="-8" cy="0" r="17" fill="#ff7a3d" opacity="0.75" />
    <circle cx="8" cy="0" r="17" fill="#ffcf5c" opacity="0.75" />
    <circle cx="-8" cy="0" r="17" fill="#ff7a3d" opacity="0.35" style="mix-blend-mode:screen" />
  </g>

  <text x="318.58" y="30" text-anchor="end" font-size="12" letter-spacing="2.5" fill="#ffffff" fill-opacity="0.8" font-weight="700">CREDIT</text>

  <text x="25" y="133" font-size="21" letter-spacing="3" fill="#000000" fill-opacity="0.35">&#8226;&#8226;&#8226;&#8226; &#8226;&#8226;&#8226;&#8226; &#8226;&#8226;&#8226;&#8226; 6631</text>
  <text x="24" y="132" font-size="21" letter-spacing="3" fill="#ffffff">&#8226;&#8226;&#8226;&#8226; &#8226;&#8226;&#8226;&#8226; &#8226;&#8226;&#8226;&#8226; 6631</text>

  <text x="24" y="168" font-size="8.5" letter-spacing="1.5" fill="#ffffff" fill-opacity="0.55">CARD HOLDER</text>
  <text x="24" y="185" font-size="13" letter-spacing="1" fill="#ffffff" font-weight="500">A CARDHOLDER</text>

  <text x="318.58" y="168" text-anchor="end" font-size="8.5" letter-spacing="1.5" fill="#ffffff" fill-opacity="0.55">VALID THRU</text>
  <text x="318.58" y="185" text-anchor="end" font-size="13" letter-spacing="1" fill="#ffffff" font-weight="500">12/29</text>
</svg>
