<svg width="342.58" height="216" viewBox="0 0 342.58 216" fill="none" xmlns="http://www.w3.org/2000/svg">
  <defs>
    <linearGradient id="bg23" x1="0%" y1="0%" x2="100%" y2="100%">
      <stop offset="0%" stop-color="#001a1a" />
      <stop offset="55%" stop-color="#0a2e3d" />
      <stop offset="100%" stop-color="#000a12" />
    </linearGradient>
    <linearGradient id="chip23" x1="0%" y1="0%" x2="100%" y2="100%">
      <stop offset="0%" stop-color="#eef2f5" />
      <stop offset="100%" stop-color="#a9b4bd" />
    </linearGradient>
    <clipPath id="clip23">
      <rect width="342.58" height="216" rx="20" />
    </clipPath>
    <radialGradient id="glowA23" cx="20%" cy="0%" r="65%">
    <stop offset="0%" stop-color="#7affc4" stop-opacity="0.2" />
    <stop offset="100%" stop-color="#7affc4" stop-opacity="0" />
  </radialGradient>
  </defs>

  <g clip-path="url(#clip23)">
    <rect width="342.58" height="216" fill="url(#bg23)" />
    <rect width="342.58" height="216" fill="url(#glowA23)" />
    <path d="M-10,21.6 Q15.0,-2.9 40.0,17.1 Q65.0,16.7 90.0,36.7 Q115.0,15.6 140.0,35.6 Q165.0,-4.7 190.0,15.3 Q215.0,-16.4 240.0,3.6 Q265.0,-3.4 290.0,16.6 Q315.0,16.4 340.0,36.4 Q365.0,16.0 390.0,36.0 L362.58,0 L-10,0 Z" fill="#7affc4" opacity="0.1" /><path d="M-10,39.6 Q15.0,31.9 40.0,51.9 Q65.0,36.0 90.0,56.0 Q115.0,17.7 140.0,37.7 Q165.0,2.0 190.0,22.0 Q215.0,10.5 240.0,30.5 Q265.0,31.4 290.0,51.4 Q315.0,36.2 340.0,56.2 Q365.0,18.2 390.0,38.2 L362.58,0 L-10,0 Z" fill="#7affc4" opacity="0.1" /><path d="M-10,57.6 Q15.0,55.3 40.0,75.3 Q65.0,40.1 90.0,60.1 Q115.0,21.5 140.0,41.5 Q165.0,24.9 190.0,44.9 Q215.0,45.7 240.0,65.7 Q265.0,55.4 290.0,75.4 Q315.0,40.7 340.0,60.7 Q365.0,21.8 390.0,41.8 L362.58,0 L-10,0 Z" fill="#7ab8ff" opacity="0.1" /><path d="M-10,75.6 Q15.0,62.5 40.0,82.5 Q65.0,42.0 90.0,62.0 Q115.0,40.1 140.0,60.1 Q165.0,59.5 190.0,79.5 Q215.0,73.5 240.0,93.5 Q265.0,63.0 290.0,83.0 Q315.0,42.4 340.0,62.4 Q365.0,39.8 390.0,59.8 L362.58,0 L-10,0 Z" fill="#c37aff" opacity="0.1" /><circle cx="146.3" cy="27.2" r="1.8" fill="#ffffff" opacity="0.43" /><circle cx="210.9" cy="122.5" r="1.5" fill="#ffffff" opacity="0.47" /><circle cx="327.3" cy="119.4" r="0.8" fill="#ffffff" opacity="0.27" /><circle cx="53.8" cy="56.7" r="1.2" fill="#ffffff" opacity="0.47" /><circle cx="283.7" cy="55.3" r="0.9" fill="#ffffff" opacity="0.35" /><circle cx="94.7" cy="76.2" r="1.9" fill="#ffffff" opacity="0.22" /><circle cx="234.4" cy="21.7" r="0.8" fill="#ffffff" opacity="0.22" /><circle cx="182.7" cy="77.8" r="1.4" fill="#ffffff" opacity="0.46" /><circle cx="333.2" cy="44.5" r="1.8" fill="#ffffff" opacity="0.35" /><circle cx="172.0" cy="44.6" r="1.9" fill="#ffffff" opacity="0.49" />
    <rect width="342.58" height="70" fill="#000000" opacity="0.1" />
    <rect y="156" width="342.58" height="60" fill="#000000" opacity="0.18" />
  </g>
  <rect x="0.5" y="0.5" width="341.58" height="215" rx="19.5" fill="none" stroke="#ffffff" stroke-opacity="0.1" stroke-width="1" />

  <g>
    <circle cx="32" cy="17" r="9" fill="#7affc4" opacity="0.9" />
    <text x="48" y="21" font-size="12.5" letter-spacing="0.5" fill="#ffffff" font-weight="700">AURORA</text>
  </g>

  <g>
    <rect x="24" y="38" width="48" height="36" rx="7" fill="url(#chip23)" />
    <rect x="24" y="38" width="48" height="36" rx="7" fill="none" stroke="#000" stroke-opacity="0.15" stroke-width="1" />
    <rect x="31" y="48" width="34" height="16" rx="2" fill="none" stroke="#00000055" stroke-width="1" />
    <line x1="48" y1="38" x2="48" y2="74" stroke="#00000033" stroke-width="1" />
    <line x1="24" y1="56" x2="72" y2="56" stroke="#00000033" stroke-width="1" />
  </g>

  <g transform="translate(96 56)" stroke="#ffffff" stroke-opacity="0.55" stroke-width="2" fill="none" stroke-linecap="round">
    <path d="M0,14 A14,14 0 0 1 0,-14" />
    <path d="M0,9 A9,9 0 0 1 0,-9" />
    <path d="M0,4 A4,4 0 0 1 0,-4" />
  </g>

  <g transform="translate(288 168)">
    <circle cx="-8" cy="0" r="17" fill="#7affc4" opacity="0.75" />
    <circle cx="8" cy="0" r="17" fill="#7ab8ff" opacity="0.75" />
    <circle cx="-8" cy="0" r="17" fill="#7affc4" opacity="0.35" style="mix-blend-mode:screen" />
  </g>

  <text x="318.58" y="30" text-anchor="end" font-size="12" letter-spacing="2.5" fill="#ffffff" fill-opacity="0.8" font-weight="700">CREDIT</text>

  <text x="25" y="133" font-size="21" letter-spacing="3" fill="#000000" fill-opacity="0.35">&#8226;&#8226;&#8226;&#8226; &#8226;&#8226;&#8226;&#8226; &#8226;&#8226;&#8226;&#8226; 9977</text>
  <text x="24" y="132" font-size="21" letter-spacing="3" fill="#ffffff">&#8226;&#8226;&#8226;&#8226; &#8226;&#8226;&#8226;&#8226; &#8226;&#8226;&#8226;&#8226; 9977</text>

  <text x="24" y="168" font-size="8.5" letter-spacing="1.5" fill="#ffffff" fill-opacity="0.55">CARD HOLDER</text>
  <text x="24" y="185" font-size="13" letter-spacing="1" fill="#ffffff" font-weight="500">A CARDHOLDER</text>

  <text x="318.58" y="168" text-anchor="end" font-size="8.5" letter-spacing="1.5" fill="#ffffff" fill-opacity="0.55">VALID THRU</text>
  <text x="318.58" y="185" text-anchor="end" font-size="13" letter-spacing="1" fill="#ffffff" font-weight="500">07/30</text>
</svg>
